<?xml version="1.0" encoding="utf-8"?>
<!-- Generator: Adobe Illustrator 21.1.0, SVG Export Plug-In . SVG Version: 6.00 Build 0)  -->
<svg version="1.1" id="Layer_1" xmlns="http://www.w3.org/2000/svg" xmlns:xlink="http://www.w3.org/1999/xlink" width="256.9" height="207.6"
	 viewBox="0 0 256.9 207.6" enable-background="new 0 0 256.9 207.6" xml:space="preserve">
<g>
	<path fill="none" stroke="#231F20" stroke-width="4.4221" stroke-miterlimit="10" d="M42.4,160c13.7,6.5,22.3,12.1,37.4,10.7
		c32.9-3,55.6-25.8,87.3-23.3c18.5,1.5,26.3,4.2,38.6,12.2v34c-12-7.1-19.5-11.6-33.5-12.8c-36.2-3.3-56.2,20.3-91.5,24.2
		c-15.8,1.7-25.7-3.3-38.9-12.2L42.4,160z"/>
	<path fill-rule="evenodd" clip-rule="evenodd" fill="#231F20" d="M42.4,160c13.7,6.5,22.3,12.1,37.4,10.7
		c32.9-3,55.6-25.8,87.3-23.3c18.5,1.5,26.3,4.2,38.6,12.2v34c-12-7.1-19.5-11.6-33.5-12.8c-36.2-3.3-56.2,20.3-91.5,24.2
		c-15.8,1.7-25.7-3.3-38.9-12.2L42.4,160z"/>
	<path fill="none" stroke="#231F20" stroke-width="3.3165" stroke-miterlimit="10" d="M197.8,163.7c8.2,1.4,13,1.6,21.2,0.9
		c11.4-1,18-2.8,28.4-7.8c-1.7,4.3-3,6.7-5.7,10.4c-2.6,3.6-4.4,5.5-7.8,8.4l13.4,7.5c-9.7,4.6-15.9,6.3-26.6,7.5
		c-9,0.9-14.4,0.7-23.3-0.9L197.8,163.7z"/>
	<path fill-rule="evenodd" clip-rule="evenodd" fill="#231F20" d="M197.8,163.7c8.2,1.4,13,1.6,21.2,0.9c11.4-1,18-2.8,28.4-7.8
		c-1.7,4.3-3,6.7-5.7,10.4c-2.6,3.6-4.4,5.5-7.8,8.4l13.4,7.5c-9.7,4.6-15.9,6.3-26.6,7.5c-9,0.9-14.4,0.7-23.3-0.9L197.8,163.7z"/>
	<path fill="none" stroke="#231F20" stroke-width="3.3165" stroke-miterlimit="10" d="M52.6,165.9c0,0-32.3-4.5-49.3,7.2l13.7,6.9
		c-2,2.8-3.2,4.3-5.1,7.2c-2.8,4.1-4.3,6.5-6.9,10.7c9.4-3.6,15.1-4.9,25.1-6c8.7-0.9,13.7-0.8,22.4,0.3V165.9z"/>
	<path fill-rule="evenodd" clip-rule="evenodd" fill="#231F20" d="M52.6,165.9c0,0-32.3-4.5-49.3,7.2l13.7,6.9
		c-2,2.8-3.2,4.3-5.1,7.2c-2.8,4.1-4.3,6.5-6.9,10.7c9.4-3.6,15.1-4.9,25.1-6c8.7-0.9,13.7-0.8,22.4,0.3V165.9z"/>
	<polygon fill-rule="evenodd" clip-rule="evenodd" fill="#C6A841" points="71.6,16.4 73.1,4.2 83.2,13.4 87.1,1.2 95.2,11.6 
		103.5,0 108.9,11.9 117,1.2 121.2,13.7 129.8,4.2 132.5,17.3 143.6,9.5 142.7,22.4 155.2,16.1 153.7,29.2 166,24.8 161.8,38.2 
		175.9,34.6 169.9,46.8 183,46.5 176.5,57.6 188.7,59.1 181.2,68.9 194.1,72.2 183,80.8 195.3,86.2 184.5,93.1 195,99.6 
		183.3,105.3 193.8,114 181.2,117.2 188.7,126.8 176.5,128.6 183.3,140.2 170.2,138.4 175,150.7 162.1,148.9 166.3,160.8 
		153.4,157.2 156.4,169.7 143.3,162 144.5,176.6 132.8,167.7 131,181.7 121.8,171.2 117.3,185.6 109.2,173 103.2,186.2 96.1,172.1 
		86.8,185.6 82,172.7 72.5,182.3 71,166.8 59.9,177.5 59.3,162.9 48.5,169.7 50.3,156.9 36.3,161.7 42,148.6 28.5,151.3 33.3,139.6 
		20.5,139.6 27.3,128.6 14.5,126.8 22.8,116.9 10.3,114 20.2,105.6 8.2,100.8 19.3,93.4 8.8,85.9 20.8,81.4 10,72.2 22.5,68.9 
		14.5,58.8 27.3,58.2 20.2,46.8 34.2,47.1 28.5,35.5 42,38.2 37.2,25.4 50.3,29.8 48.3,16.4 60.2,22.1 60.2,9.8 	"/>
	<path fill-rule="evenodd" clip-rule="evenodd" fill="#B9C8E6" d="M22.8,93.7c0-43.3,35.2-78.5,78.6-78.5
		c43.4,0,78.6,35.1,78.6,78.5c0,43.3-35.2,78.5-78.6,78.5C58,172.1,22.8,137,22.8,93.7"/>
	<path fill-rule="evenodd" clip-rule="evenodd" fill="#FFFFFF" d="M121.3,19.2C66.3,31.9,39.6,57,53.4,68c7.5,6,29,11.3,39.1,15.8
		c48,21.5,59.3,46.6,56.2,72.6c-13.1,9.9-29.5,15.7-47.2,15.7c-43.4,0-78.6-35.1-78.6-78.5c0-43.3,35.2-78.5,78.6-78.5
		c7.6,0,14.9,1.1,21.9,3.1C122,18.9,121.3,19.2,121.3,19.2"/>
	<path fill="none" stroke="#FFFFFF" stroke-width="1.1132" stroke-miterlimit="10" d="M22.8,93.7c0-43.3,35.2-78.5,78.6-78.5
		c43.4,0,78.6,35.1,78.6,78.5c0,43.3-35.2,78.5-78.6,78.5C58,172.1,22.8,137,22.8,93.7z M22.8,93.7c0-43.3,35.2-78.5,78.6-78.5
		c43.4,0,78.6,35.1,78.6,78.5c0,43.3-35.2,78.5-78.6,78.5C58,172.1,22.8,137,22.8,93.7"/>
	<path fill="none" stroke="#0066B2" stroke-width="0.4809" stroke-miterlimit="10" d="M112.2,89.7c1.7,0.4,3.4,0.4,5.2,0.5
		c9.9,0.4,9.1-6.2,17.8-0.9c6.7-5.3,12,1.8,22.5-0.5c-0.1,13.3-0.2,24.6,0,36.8c-4.8-2.3-12.4-5.9-17.7-5c-2.6,2.9-7,2.7-9.3-0.4
		c-5.8,2.1-12.2,4.3-18.1,6.2C112.3,114,113.1,101.9,112.2,89.7z"/>
	<path fill-rule="evenodd" clip-rule="evenodd" fill="#0066B2" d="M112.2,89.7c1.7,0.4,3.4,0.4,5.2,0.5c9.9,0.4,9.1-6.2,17.8-0.9
		c6.7-5.3,12,1.8,22.5-0.5c-0.1,13.3-0.2,24.6,0,36.8c-4.8-2.3-12.4-5.9-17.7-5c-2.6,2.9-7,2.7-9.3-0.4c-5.8,2.1-12.2,4.3-18.1,6.2
		C112.3,114,113.1,101.9,112.2,89.7"/>
	<path fill-rule="evenodd" clip-rule="evenodd" fill="#FFFFFF" d="M131.8,116.5l0,2.1c0.8,1.4,2,2.1,3.6,2.1c1.6,0,2.8-0.6,3.6-2
		l-0.1-2.3c-0.6,1.5-1.9,2.4-3.5,2.4C133.7,118.9,132.4,118.1,131.8,116.5"/>
	<path fill="none" stroke="#0066B2" stroke-width="2.3333" stroke-miterlimit="10" d="M115.9,93.9c0.4,8.9,0.3,17.8-0.4,26.7
		c7.9,1.1,11.5-6.8,19.2-6.5c0.8,0.6,1.7,0.9,2.4,0c4.3-1,12.6,4.4,16.9,6.3l-0.5-26.9c-6.4-1.2-12.8-8-17.8-2.9
		C128.2,84.8,123,92.7,115.9,93.9z"/>
	<path fill-rule="evenodd" clip-rule="evenodd" fill="#FFFFFF" d="M115.9,93.9c0.4,8.9,0.3,17.8-0.4,26.7c7.9,1.1,11.5-6.8,19.2-6.5
		c0.8,0.6,1.7,0.9,2.4,0c4.3-1,12.6,4.4,16.9,6.3l-0.5-26.9c-6.4-1.2-12.8-8-17.8-2.9C128.2,84.8,123,92.7,115.9,93.9"/>
	<line fill="none" stroke="#0066B2" stroke-width="2.3333" stroke-miterlimit="10" x1="152.5" y1="116.3" x2="154.5" y2="121.9"/>
	<line fill="none" stroke="#0066B2" stroke-width="2.3333" stroke-miterlimit="10" x1="117.7" y1="116.4" x2="113.5" y2="122.7"/>
	<path fill="none" stroke="#0066B2" stroke-width="2.3333" stroke-miterlimit="10" d="M116,93.8c7.6-1.1,11.4-9.9,19.3-3.4
		c6.9-6.2,10.7,1.5,17.4,3.1l-0.2,22.6c-6.9-1.3-9.9-6.6-16.6-1.8c-7-4.6-12.1,1.1-18.1,2.2C117.7,108.9,116.9,101.4,116,93.8z"/>
	<path fill-rule="evenodd" clip-rule="evenodd" fill="#FFFFFF" d="M116,93.8c7.6-1.1,11.4-9.9,19.3-3.4c6.9-6.2,10.7,1.5,17.4,3.1
		l-0.2,22.6c-6.9-1.3-9.9-6.6-16.6-1.8c-7-4.6-12.1,1.1-18.1,2.2C117.7,108.9,116.9,101.4,116,93.8"/>
	<line fill="none" stroke="#0066B2" stroke-width="2.3333" stroke-miterlimit="10" x1="135.3" y1="89.2" x2="135.8" y2="115.5"/>
	<path fill-rule="evenodd" clip-rule="evenodd" fill="#945C37" d="M45.8,118.9c4,0.9,7.1-0.9,10.9-0.7c9.1,0.5,9.2,12.9,6,14.9
		c-3.7,2.3-17.2,2.1-17.6,7.5H97c-1.3-6-15.2-5.7-16.8-6.9c-4.5-3.2-3.2-15.2,4-16.1c3.6-0.4,6.6,1.3,10.6,0.2l-0.3-1.8
		c-1.3,0.6-3.2,1.4-4.6,0.9c1.1-0.8,3.7-1.2,5-1.1l-1.3-1.6c-2,0-4.5,0.2-6.5,0.4v-1.3l1.3-1l-0.8-1.3l-1.7,1.3
		c-0.2-0.8,0.4-2.7,0.8-3.4l-2.4,0.9v1.3l-2-2.3l-2.3,0.6l2.9,1.8l0.7,1.3c-0.6,1.3-1.5,2.2-3,1.5c-0.2-1.2,0.3-3.8,0.8-5l-0.1,0
		l-2,0.5c0.2,1.1,0.1,1.8-0.2,2.8c-0.3,1-0.6,1.5-1.2,2.3c-0.4,0.6-0.7,1-1.2,1.5c-0.5-0.3-0.7-0.6-0.8-1.2
		c-0.1-0.5,0.3-1.3,0.3-1.3c0.6-0.6,0.9-1,1.3-1.8c0.4-0.8,0.6-1.3,0.7-2.2l-1.8,0.2c0.1,0.5,0,0.8-0.2,1.3c-0.2,0.6-1,1.3-1,1.3
		l-0.7-1.3l0.2-1.2l-2.4,0.2c0.3,0.7,0.4,1.1,0.5,1.8c0.1,1.1-0.6,1.8-0.3,2.9c0.2,0.9,1.4,1.1,1.2,2c-0.2,0.8-1,0.8-1.7,1.2
		c-0.6,0.3-0.9,0.6-1.5,0.5c-0.7-0.1-1.1-0.6-1.5-1.2c-0.7-0.9-0.5-1.7-0.5-2.8c0-1.1,0.5-1.7,0.7-2.9c0.1-0.7,0.1-1.1,0.2-1.8h-1.8
		c0.2,0.5,0.2,0.8,0.2,1.3c-0.1,0.5-0.2,0.8-0.5,1.2c-0.6-0.1-1-0.3-1.3-0.8c-0.3-0.5-0.4-0.9-0.2-1.5H63c-0.2,1,0.2,1.9,1,2.5
		c0.5,0.4,1.2,0,1.5,0.5c0.3,0.6,0.1,1.4-0.5,1.7c-0.5,0.2-0.9-0.2-1.3-0.5c-0.8-0.5-1.2-1.1-1.5-2c-0.2-0.9-0.2-1.5,0.2-2.3
		l-1.8,0.2c-0.1,0.7-0.1,1.1-0.2,1.8c0,0.8,0,1.3,0,2.2c-0.7,0.2-1.3,0-1.8-0.5c-0.6-0.6-0.4-1.3-0.3-2.2c0.1-0.8,0.2-1.2,0.7-1.8
		l-4.5-0.2l-0.3,1.2l0.2,1.8c-0.8-0.1-1.2-0.4-1.7-1c-0.3-0.4-0.5-1.2-0.5-1.2l-2,0.5c0.3,1.2,0.8,1.9,1.8,2.7
		c0.7,0.5,1.4,0.3,2,0.8c0.4,0.4,0.6,0.7,0.8,1.2c-1.5,0-2.4-0.1-3.9-0.3c-1-0.2-1.5-0.3-2.5-0.5l-1,1.3c1.3-0.1,2.2,0.1,3.4,0.7
		c0.6,0.3,1,0.5,1.5,1c-1.2,0.3-1.9,0.4-3.2,0.3c-1.1,0-1.7-0.1-2.7-0.3L45.8,118.9z M76.7,118.8c1.4-0.6,2.1-0.9,3.5-1.3
		c2.3-0.8,3.6-1.1,5.9-1.7c-1.6,0.1-2.5,0.1-4,0c-1.1-0.1-1.6-0.2-2.7-0.3c-0.3,0.5-0.5,0.7-0.8,1.2C77.9,117.5,77.5,118,76.7,118.8
		z M58.8,116.3c1.1,0.2,1.7,0.4,2.7,0.8c1.9,0.8,2.9,1.6,4.2,3.2c0.2-1.1,0-1.9-0.7-2.8c-0.6-0.8-1.2-1.2-2.2-1.5
		c-0.9-0.3-1.5-0.3-2.5-0.2C59.7,115.9,59.3,116,58.8,116.3z"/>
	<path fill="#005C33" d="M100.9,113.2c0-0.4,0.1-0.9,0.1-1.3c0.3-0.3,0.6-0.8,0.6-1.3c0.1-0.7-0.2-1.4-0.7-1.8
		c-0.5-0.4-1-0.4-1.4-0.2c0-0.4-0.2-0.9-0.8-1.1c-0.4-0.2-0.9-0.1-1.3,0l-0.7-0.9l-0.1-0.3c0-0.1,0-0.3,0-0.4c-0.2-1-1-1.3-1.4-1.5
		c-0.1-0.1-0.3-0.1-0.4-0.2c-0.1-0.1-0.2-0.1-0.3-0.2c-0.3-0.3-0.9-0.7-1.7-0.6c-0.8,0.1-1.2,0.6-1.4,0.9c0,0.1-0.1,0.2-0.1,0.2
		c-0.2,0.1-0.4,0.1-0.9-0.1c-0.4-0.1-0.8-0.3-1.4-0.3c-0.4,0-0.7,0-0.9,0.1c0,0-0.1,0-0.1,0c0,0,0,0,0-0.1c0-0.4,0-1.4-1-1.8
		c-0.6-0.3-1.3-0.1-1.8,0.2c-0.2-0.1-0.4-0.3-0.7-0.3c-0.8-0.3-1.9-0.2-2.6,0.4l-0.2,0c-0.3-0.1-0.6-0.1-0.9-0.1
		c0,0-0.1-0.1-0.1-0.1c-0.3-0.4-0.8-0.5-1.1-0.5c0,0,0,0,0-0.1c-0.2-1.1-1.4-1.8-2.6-1.6c-0.5,0.1-0.8,0.3-1,0.6
		c-0.2-0.3-0.4-0.5-0.8-0.7c-0.8-0.4-1.5-0.3-2.1-0.2c-0.2,0-0.3,0.1-0.5,0.1c-0.4,0-0.7,0.2-0.9,0.2c-0.3-0.6-1.2-0.9-1.5-1
		l-0.2-0.1l-0.2,0c-0.7,0.1-1,0.1-1.7,0.2c-0.1,0-0.3,0-0.4,0c-0.4,0-0.8,0-1.3,0.2c-0.7,0.4-1,1-1.1,1.4c-0.1,0.2-0.1,0.4-0.2,0.4
		c-0.5,0.4-0.8,0.5-1.7,0.6c-0.1,0-0.2,0-0.4-0.1c-0.4-0.1-1.1-0.2-1.8,0.2c-0.8,0.5-0.8,1.3-0.9,1.7c0,0,0,0.1,0,0.1
		c0,0-0.1,0-0.2,0c0,0-0.1-0.1-0.1-0.2c-0.2-0.3-0.6-1.1-1.5-1.1c0,0,0,0,0,0c-0.6,0-0.9,0.3-1.2,0.6c-0.2-0.3-0.6-0.6-1.1-0.6
		c-1.1-0.1-1.5,0.9-1.7,1.3c0,0.1-0.1,0.2-0.1,0.2c-0.1,0-0.2-0.1-0.3-0.1c-0.4-0.2-0.9-0.4-1.6-0.3c-0.7,0.1-1,0.5-1.3,0.8
		c-0.1,0.1-0.2,0.2-0.3,0.2c-0.1,0-0.1,0-0.4-0.2c-0.3-0.2-0.7-0.4-1.2-0.5c-0.9-0.1-1.7-0.3-2.8,0.3c-1.3,0.7-2,1.6-2.1,2.8
		c0,0.4,0.1,0.7,0.2,1c-0.3,0.1-0.7,0.2-1.1,0.5c-0.6,0.5-0.7,1.1-0.8,1.6c0,0.2-0.1,0.4-0.3,0.4c-0.3,0-0.8-0.1-1.3,0.2
		c-1.2,0.6-1.8,1.9-1.5,3.2c0.1,0.8,0.7,1.1,1,1.4c0.1,0.1,0.2,0.1,0.2,0.1c0,0-0.1,0.2-0.1,0.3c-0.2,0.3-0.6,0.9-0.4,1.7
		c0.2,0.8,0.8,1.1,1.1,1.3c0.1,0.1,0.3,0.2,0.3,0.2c0,0,0,0.2,0,0.3c0,0.3,0,0.9,0.5,1.5c0.6,0.6,1.2,1,1.9,1c0.3,0,0.7-0.1,1-0.2
		c0.5-0.3,0.8-0.8,1-1.2c0.7-0.2,1.3-0.8,1.5-1.6c0.2-0.7-0.1-1.2-0.4-1.6c0,0,0,0,0.1,0c0.3-0.1,0.6-0.3,1-0.7l0.2-0.2
		c0.5-0.6,1-1.2,1.1-2.2c0-0.1,0-0.1,0-0.2c0.2,0,0.4-0.1,0.6-0.3c0.5-0.4,0.6-0.9,0.6-1.4c0.1,0,0.3-0.1,0.5-0.1
		c0.5-0.1,0.8-0.1,1.4-0.2c0.3,0,0.5,0,0.8,0.1c0.4,0.1,0.7,0.1,1.3,0.1c0.6,0,1-0.2,1.3-0.3c0.3-0.1,0.5-0.2,0.8-0.2
		c0.2,0,0.4,0.1,0.7,0.2c0.3,0.1,0.7,0.3,1.3,0.3c0.8,0.1,1.3-0.1,1.9-0.2c0.3-0.1,0.5-0.1,0.8-0.2l0.4,0c0.1,0.2,0.2,0.4,0.4,0.7
		c0.7,0.9,1.6,1,2.2,1.1c1.2,0.1,2.1-0.2,2.8-1c0.3-0.3,0.5-0.7,0.5-1c0,0,0.1,0,0.1,0.1c0.3,0.3,0.8,0.6,1.4,0.7
		c0.7,0.1,1.2,0.1,1.7,0l1.1,0c0.5,0,1,0,1.7-0.2c0.4-0.1,0.6-0.2,0.8-0.4c0.2-0.1,0.2-0.1,0.2-0.1c0,0,0.1,0.1,0.2,0.2
		c0.3,0.3,0.7,0.7,1.4,0.8c1,0.1,1.8-0.1,2.4-0.8c0.3-0.3,0.5-0.6,0.5-0.9c0.1,0,0.1,0.1,0.2,0.1l0.3,0.2h0.4c0.7,0,1.1-0.2,1.5-0.5
		c0.3,0.2,0.7,0.3,1.1,0.4c0.7,0.2,1.3,0.2,2.2,0c0.4-0.1,0.7-0.4,0.9-0.6c0.1,0.2,0.2,0.5,0.3,0.7c0.1,0.1,0.2,0.3,0.2,0.4
		c0.2,0.4,0.5,0.9,1.1,1.3c0.5,0.3,1.1,0.6,1.9,0.5c0.2-0.1,0.4-0.2,0.6-0.3c0.1,0.1,0.1,0.2,0.2,0.2c0.5,0.4,1,0.5,1.4,0.5
		c0,0.3,0,0.9,0.4,1.4c0.3,0.4,0.7,0.5,1,0.6c-0.1,0.3-0.3,0.9,0,1.5c0.5,1,1.3,1.3,1.9,1.6l0.5,0.2c0.5,0.2,1.2,0.5,2.1,0.2
		c0.9-0.3,1.6-1.3,1.7-1.6l0.1-0.3l0-0.3c0-0.4,0-0.6,0.2-1c0,0,0.1-0.1,0.2-0.2c0.3-0.2,0.8-0.5,1-1.2c0.2-0.6,0.1-1.1,0-1.5
		C100.9,113.5,100.9,113.3,100.9,113.2z"/>
	<path fill="none" stroke="#231F20" stroke-width="3.3165" stroke-miterlimit="10" d="M56,161.4c0,0-32.3-4.5-49.3,7.2l13.7,6.9
		c-2,2.8-3.2,4.3-5.1,7.2c-2.8,4.1-4.3,6.5-6.9,10.7c9.4-3.6,15.1-4.9,25.1-6c8.7-0.9,13.7-0.8,22.4,0.3V161.4z"/>
	<path fill-rule="evenodd" clip-rule="evenodd" fill="#C6A841" d="M56,161.4c0,0-32.3-4.5-49.3,7.2l13.7,6.9c-2,2.8-3.2,4.3-5.1,7.2
		c-2.8,4.1-4.3,6.5-6.9,10.7c9.4-3.6,15.1-4.9,25.1-6c8.7-0.9,13.7-0.8,22.4,0.3V161.4z"/>
	<path fill="none" stroke="#231F20" stroke-width="3.3165" stroke-miterlimit="10" d="M203.7,158.1c8.2,1.4,13,1.6,21.2,0.9
		c11.4-1,18-2.8,28.4-7.8c-1.7,4.3-3,6.7-5.7,10.4c-2.6,3.6-4.4,5.5-7.8,8.4l13.4,7.5c-9.7,4.6-15.9,6.3-26.6,7.5
		c-9,0.9-14.4,0.7-23.3-0.9L203.7,158.1z"/>
	<path fill-rule="evenodd" clip-rule="evenodd" fill="#C6A841" d="M203.7,158.1c8.2,1.4,13,1.6,21.2,0.9c11.4-1,18-2.8,28.4-7.8
		c-1.7,4.3-3,6.7-5.7,10.4c-2.6,3.6-4.4,5.5-7.8,8.4l13.4,7.5c-9.7,4.6-15.9,6.3-26.6,7.5c-9,0.9-14.4,0.7-23.3-0.9L203.7,158.1z"/>
	<path fill="none" stroke="#231F20" stroke-width="4.4221" stroke-miterlimit="10" d="M47.4,154.8c13.7,6.5,22.3,12.1,37.4,10.7
		c32.9-3,55.6-25.8,87.3-23.3c18.5,1.5,26.3,4.2,38.6,12.2v34c-12-7.1-19.5-11.6-33.5-12.8c-36.2-3.3-56.2,20.3-91.4,24.2
		c-15.8,1.7-25.7-3.3-38.9-12.2L47.4,154.8z"/>
	<path fill-rule="evenodd" clip-rule="evenodd" fill="#C6A841" d="M47.4,154.8c13.7,6.5,22.3,12.1,37.4,10.7
		c32.9-3,55.6-25.8,87.3-23.3c18.5,1.5,26.3,4.2,38.6,12.2v34c-12-7.1-19.5-11.6-33.5-12.8c-36.2-3.3-56.2,20.3-91.4,24.2
		c-15.8,1.7-25.7-3.3-38.9-12.2L47.4,154.8z"/>
	<path fill="none" stroke="#FFFFFF" stroke-width="2.2266" stroke-miterlimit="10" d="M50.9,161.4c57.6,32.6,95.8-42.1,156-4.5v24.5
		c-67-36.4-103.4,42.2-156.3,3.6L50.9,161.4z"/>
	<path fill-rule="evenodd" clip-rule="evenodd" fill="#DAC587" d="M50.9,161.4c57.6,32.6,95.8-42.1,156-4.5v24.5
		c-67-36.4-103.4,42.2-156.3,3.6L50.9,161.4z"/>
	<path fill="#231F20" d="M58,170.8l1.6,0.7l-2.3,5c-0.4,0.8-0.6,1.3-0.7,1.6c-0.1,0.4-0.1,0.8,0.1,1.1c0.1,0.3,0.4,0.6,0.9,0.8
		c0.4,0.2,0.8,0.3,1.2,0.1c0.3-0.1,0.6-0.3,0.8-0.6c0.2-0.3,0.5-0.8,0.8-1.5l2.4-5.1l1.6,0.7l-2.3,4.9c-0.5,1.1-0.9,1.9-1.2,2.3
		c-0.3,0.4-0.6,0.7-1,0.9c-0.4,0.2-0.8,0.3-1.3,0.3c-0.5,0-1-0.1-1.6-0.4c-0.7-0.3-1.3-0.7-1.6-1.1c-0.3-0.4-0.5-0.8-0.5-1.2
		c-0.1-0.4-0.1-0.8,0-1.2c0.1-0.6,0.5-1.4,0.9-2.4L58,170.8z"/>
	<polygon fill="#231F20" points="61.9,184 66,174.6 67.5,175.2 68.1,182.9 70.7,176.6 72.2,177.2 68.2,186.6 66.6,186 66,178.5 
		63.4,184.6 	"/>
	
		<rect x="67.8" y="181.9" transform="matrix(0.2761 -0.9611 0.9611 0.2761 -122.8804 202.4039)" fill="#231F20" width="10.2" height="1.7"/>
	<polygon fill="#231F20" points="77.4,188.8 74.8,178.4 76.7,178.5 78.5,186.2 81,178.7 82.8,178.8 79.2,188.9 	"/>
	<polygon fill="#231F20" points="84,188.8 83.2,178.6 89.6,178.2 89.7,179.9 85.1,180.2 85.3,182.5 89.6,182.2 89.7,183.9 
		85.4,184.2 85.6,187 90.4,186.7 90.5,188.4 	"/>
	<path fill="#231F20" d="M93.3,181.8l1.3-0.3c0.8-0.2,1.3-0.3,1.5-0.4c0.2-0.1,0.3-0.3,0.4-0.5c0.1-0.2,0.1-0.5,0-0.8
		c-0.1-0.3-0.2-0.6-0.4-0.8c-0.2-0.2-0.4-0.3-0.7-0.3c-0.1,0-0.6,0.1-1.2,0.2l-1.3,0.3L93.3,181.8z M92.8,187.9l-2.1-10l3.6-0.8
		c0.9-0.2,1.6-0.2,2-0.1c0.4,0.1,0.8,0.3,1.2,0.7c0.3,0.4,0.6,0.9,0.7,1.5c0.2,0.7,0.1,1.4-0.2,2c-0.3,0.6-0.8,1-1.5,1.3
		c0.4,0.2,0.8,0.4,1.1,0.6c0.3,0.3,0.7,0.7,1.3,1.4l1.4,1.7l-2,0.4l-1.7-1.9c-0.6-0.7-1-1.1-1.2-1.3c-0.2-0.2-0.4-0.3-0.6-0.3
		c-0.2,0-0.5,0-0.9,0.1l-0.3,0.1l0.9,4.2L92.8,187.9z"/>
	<path fill="#231F20" d="M100.5,182.8l1.5-0.7c0.3,0.6,0.7,1,1,1.2c0.4,0.2,0.8,0.2,1.3,0.1c0.5-0.2,0.9-0.4,1.1-0.8
		c0.2-0.4,0.2-0.7,0.1-1.1c-0.1-0.2-0.2-0.4-0.4-0.5c-0.2-0.1-0.4-0.2-0.7-0.2c-0.2,0-0.7,0-1.5,0c-1,0-1.7-0.1-2.2-0.4
		c-0.7-0.4-1.1-0.9-1.4-1.7c-0.2-0.5-0.2-1-0.1-1.5c0.1-0.5,0.3-0.9,0.7-1.3c0.4-0.4,0.9-0.7,1.5-0.9c1-0.3,1.9-0.3,2.6,0
		c0.7,0.4,1.2,1,1.5,1.9l-1.6,0.6c-0.2-0.5-0.5-0.8-0.8-0.9c-0.3-0.1-0.7-0.1-1.2,0c-0.5,0.2-0.8,0.4-1,0.7
		c-0.1,0.2-0.1,0.4-0.1,0.7c0.1,0.2,0.2,0.4,0.4,0.5c0.3,0.1,0.9,0.2,1.7,0.2c0.9,0,1.5,0,2,0.1c0.5,0.1,0.9,0.3,1.2,0.7
		c0.4,0.3,0.6,0.8,0.8,1.4c0.2,0.6,0.2,1.1,0.1,1.7c-0.1,0.6-0.4,1.1-0.8,1.4c-0.4,0.4-1,0.7-1.7,0.9c-1,0.3-1.9,0.3-2.7-0.1
		C101.6,184.6,101,183.9,100.5,182.8"/>
	<polygon fill="#231F20" points="110,183 106.1,173.5 107.7,172.9 111.6,182.4 	"/>
	<polygon fill="#231F20" points="115.2,180.8 111.8,173 109.5,174.1 108.7,172.5 115,169.7 115.7,171.3 113.4,172.3 116.8,180.1 	
		"/>
	<polygon fill="#231F20" points="122.5,177.5 120.7,173.6 115.3,169.6 117.2,168.7 120.7,171.5 120.8,167 122.6,166.2 122.3,172.9 
		124.1,176.8 	"/>
	<path fill="#231F20" d="M130.2,168.4c0.5,1.1,1,1.8,1.7,2.2c0.6,0.4,1.3,0.4,1.9,0.2c0.6-0.3,1-0.8,1.2-1.5c0.2-0.7,0-1.6-0.4-2.7
		c-0.5-1.1-1-1.8-1.6-2.2c-0.6-0.4-1.3-0.4-1.9-0.1c-0.7,0.3-1.1,0.8-1.3,1.5C129.6,166.4,129.7,167.3,130.2,168.4 M128.6,169.1
		c-0.4-1-0.6-1.8-0.7-2.6c0-0.6,0-1.1,0.2-1.6c0.2-0.5,0.4-0.9,0.7-1.3c0.4-0.5,0.9-0.8,1.5-1.1c1.2-0.5,2.3-0.5,3.4,0.1
		c1.1,0.6,1.9,1.6,2.6,3.1c0.6,1.5,0.8,2.9,0.5,4c-0.3,1.2-1.1,2-2.2,2.5c-1.2,0.5-2.3,0.5-3.4-0.1
		C130,171.7,129.2,170.6,128.6,169.1z"/>
	<polygon fill="#231F20" points="139.5,170.1 136,160.4 141.5,158.4 142.1,160.1 138.2,161.5 139,163.8 142.4,162.5 143,164.2 
		139.6,165.4 141.1,169.5 	"/>
	<polygon fill="#231F20" points="149.5,166.6 147.4,156.7 149.1,156.3 150.8,164.6 155,163.7 155.4,165.4 	"/>
	
		<rect x="155.8" y="155" transform="matrix(0.9925 -0.1221 0.1221 0.9925 -18.379 20.3222)" fill="#231F20" width="1.7" height="10.2"/>
	<polygon fill="#231F20" points="160.6,164.8 160.2,154.6 162.8,154.5 164.6,161.4 165.9,154.4 168.5,154.3 168.9,164.5 
		167.2,164.6 167,156.5 165.5,164.7 163.9,164.7 161.9,156.7 162.2,164.8 	"/>
	<path fill="#231F20" d="M173.3,156.4l-0.3,2.9l0.9,0.1c0.7,0.1,1.1,0,1.4,0c0.2-0.1,0.4-0.2,0.6-0.5c0.2-0.2,0.2-0.5,0.3-0.8
		c0-0.4,0-0.7-0.2-0.9c-0.2-0.3-0.4-0.4-0.7-0.5c-0.2-0.1-0.6-0.1-1.2-0.2L173.3,156.4z M170.9,164.7l0.9-10.2l2.8,0.2
		c1.1,0.1,1.7,0.2,2,0.3c0.5,0.2,0.9,0.6,1.1,1.1c0.3,0.5,0.4,1.2,0.3,2c-0.1,0.6-0.2,1.1-0.4,1.6c-0.2,0.4-0.5,0.7-0.8,0.9
		c-0.3,0.2-0.6,0.4-0.9,0.4c-0.4,0.1-1,0.1-1.8,0l-1.1-0.1l-0.3,3.8L170.9,164.7z"/>
	<path fill="#231F20" d="M180.4,160.4c-0.2,1.1-0.1,2,0.3,2.7c0.4,0.7,0.9,1,1.6,1.2c0.7,0.1,1.3-0.1,1.8-0.6
		c0.5-0.5,0.9-1.4,1.1-2.5c0.2-1.2,0.1-2.1-0.2-2.7c-0.3-0.6-0.9-1-1.6-1.1c-0.7-0.1-1.3,0.1-1.8,0.6
		C180.9,158.4,180.5,159.3,180.4,160.4 M178.6,160.2c0.2-1,0.4-1.9,0.8-2.5c0.3-0.5,0.6-0.9,1-1.3c0.4-0.4,0.8-0.6,1.2-0.7
		c0.6-0.2,1.2-0.2,1.9-0.1c1.3,0.2,2.2,0.8,2.8,1.9c0.6,1,0.8,2.4,0.5,4c-0.3,1.6-0.8,2.8-1.7,3.7c-0.9,0.8-2,1.1-3.2,0.9
		c-1.3-0.2-2.2-0.8-2.8-1.8C178.5,163.1,178.3,161.8,178.6,160.2z"/>
	<path fill="#231F20" d="M190.5,159l-0.8,2.8l0.9,0.3c0.7,0.2,1.1,0.3,1.4,0.2c0.3,0,0.5-0.2,0.7-0.3c0.2-0.2,0.3-0.4,0.4-0.7
		c0.1-0.4,0.1-0.7,0-1c-0.1-0.3-0.3-0.5-0.5-0.6c-0.2-0.1-0.6-0.2-1.2-0.4L190.5,159z M186.4,166.7l2.8-9.8l2.7,0.8
		c1,0.3,1.7,0.5,1.9,0.7c0.4,0.3,0.7,0.7,0.9,1.3c0.2,0.6,0.2,1.3-0.1,2.1c-0.2,0.6-0.4,1.1-0.7,1.4c-0.3,0.4-0.6,0.6-1,0.8
		c-0.3,0.2-0.7,0.2-1,0.2c-0.4,0-1-0.1-1.8-0.4l-1.1-0.3l-1.1,3.7L186.4,166.7z"/>
	<path fill="#231F20" d="M196.6,164.4c-0.4,1.1-0.6,2-0.4,2.7c0.2,0.7,0.6,1.2,1.3,1.5c0.6,0.3,1.3,0.2,1.9-0.2
		c0.6-0.4,1.2-1.1,1.6-2.2c0.4-1.1,0.6-2,0.4-2.7c-0.2-0.7-0.6-1.2-1.3-1.4c-0.7-0.3-1.3-0.2-1.9,0.2
		C197.6,162.6,197,163.3,196.6,164.4 M194.9,163.8c0.4-1,0.8-1.7,1.3-2.3c0.4-0.4,0.8-0.7,1.3-1c0.5-0.3,0.9-0.4,1.4-0.4
		c0.6-0.1,1.2,0.1,1.9,0.3c1.2,0.5,1.9,1.3,2.3,2.4c0.4,1.1,0.2,2.5-0.4,4c-0.6,1.5-1.5,2.6-2.5,3.2c-1,0.6-2.2,0.6-3.3,0.2
		c-1.2-0.5-2-1.3-2.3-2.4C194.2,166.7,194.3,165.3,194.9,163.8z"/>
	<path fill="none" stroke="#FFFFFF" stroke-width="1.8724" stroke-miterlimit="10" d="M94.4,32.7c-1.9,5.6,7.4,3.3,6.8,10.5
		c-1.7,1.2-3,2.2-4.8,3C92.4,42.5,88.4,36.9,94.4,32.7z"/>
	<path fill-rule="evenodd" clip-rule="evenodd" fill="#FFCA05" d="M94.4,32.7c-1.9,5.6,7.4,3.3,6.8,10.5c-1.7,1.2-3,2.2-4.8,3
		C92.4,42.5,88.4,36.9,94.4,32.7"/>
	<path fill="none" stroke="#FFFFFF" stroke-width="1.8724" stroke-miterlimit="10" d="M101.2,43.2c-0.8-4.3-2.1-11,3.5-12.7
		c-1.1,4.8,5.1,6.9,2.8,12C105.4,42.2,103.2,42.6,101.2,43.2z"/>
	<path fill-rule="evenodd" clip-rule="evenodd" fill="#FFCA05" d="M101.2,43.2c-0.8-4.3-2.1-11,3.5-12.7c-1.1,4.8,5.1,6.9,2.8,12
		C105.4,42.2,103.2,42.6,101.2,43.2"/>
	<path fill="none" stroke="#FFFFFF" stroke-width="1.8724" stroke-miterlimit="10" d="M113.6,45.6c1.6-4.9,7.2-9.9,12.2-5.9
		c-5.8,2.5-2.8,8.7-8.6,10.5C116.2,48.5,115.1,47,113.6,45.6z"/>
	<path fill-rule="evenodd" clip-rule="evenodd" fill="#FFCA05" d="M113.6,45.6c1.6-4.9,7.2-9.9,12.2-5.9c-5.8,2.5-2.8,8.7-8.6,10.5
		C116.2,48.5,115.1,47,113.6,45.6"/>
	<path fill="none" stroke="#FFFFFF" stroke-width="1.8724" stroke-miterlimit="10" d="M117,50.1c3.6-3.6,11.2-6.2,13.8,0
		c-4.5,1.7-8.1,6.4-12.7,6.5C117.9,54.4,117.5,52.2,117,50.1z"/>
	<path fill-rule="evenodd" clip-rule="evenodd" fill="#FFCA05" d="M117,50.1c3.6-3.6,11.2-6.2,13.8,0c-4.5,1.7-8.1,6.4-12.7,6.5
		C117.9,54.4,117.5,52.2,117,50.1"/>
	<path fill="none" stroke="#FFFFFF" stroke-width="1.8724" stroke-miterlimit="10" d="M118,56.6c5-1.3,11.2-1.9,13.2,4.1
		c-4-0.1-10.8,2.4-14.4,0.4L118,56.6z"/>
	<path fill-rule="evenodd" clip-rule="evenodd" fill="#FFCA05" d="M118,56.6c5-1.3,11.2-1.9,13.2,4.1c-4-0.1-10.8,2.4-14.4,0.4
		L118,56.6z"/>
	<path fill="none" stroke="#FFFFFF" stroke-width="1.8724" stroke-miterlimit="10" d="M116.6,61.1c5.7,0.1,10,5.6,8.4,11.1
		c-1.8-4.3-7.5-2.1-11.5-7.3C114.7,63.7,115.9,62.6,116.6,61.1z"/>
	<path fill-rule="evenodd" clip-rule="evenodd" fill="#FFCA05" d="M116.6,61.1c5.7,0.1,10,5.6,8.4,11.1c-1.8-4.3-7.5-2.1-11.5-7.3
		C114.7,63.7,115.9,62.6,116.6,61.1"/>
	<path fill="none" stroke="#FFFFFF" stroke-width="1.8724" stroke-miterlimit="10" d="M113,64.9c5.1,2.2,8.6,9.7,3.4,13.6
		c0.8-4.2-6.5-6.2-8.2-10.9L113,64.9z"/>
	<path fill-rule="evenodd" clip-rule="evenodd" fill="#FFCA05" d="M113,64.9c5.1,2.2,8.6,9.7,3.4,13.6c0.8-4.2-6.5-6.2-8.2-10.9
		L113,64.9z"/>
	<path fill="none" stroke="#FFFFFF" stroke-width="1.8724" stroke-miterlimit="10" d="M96.1,46.3c-3-6.1-10.2-0.2-11.7-6
		c-2.3,1.9-2,5.2,0.4,6.8c2.3,1.6,6.3,0.3,8,5C93.7,50.2,94.6,48.1,96.1,46.3z"/>
	<path fill-rule="evenodd" clip-rule="evenodd" fill="#FFCA05" d="M96.1,46.3c-3-6.1-10.2-0.2-11.7-6c-2.3,1.9-2,5.2,0.4,6.8
		c2.3,1.6,6.3,0.3,8,5C93.7,50.2,94.6,48.1,96.1,46.3"/>
	<path fill="none" stroke="#FFFFFF" stroke-width="1.8724" stroke-miterlimit="10" d="M92.6,52.2c-4.7-6.6-10.4,3.7-14.1-1.5
		c-2.2,7.6,10,7,14,4.8C92.9,54.3,92.3,53.3,92.6,52.2z"/>
	<path fill-rule="evenodd" clip-rule="evenodd" fill="#FFCA05" d="M92.6,52.2c-4.7-6.6-10.4,3.7-14.1-1.5c-2.2,7.6,10,7,14,4.8
		C92.9,54.3,92.3,53.3,92.6,52.2"/>
	<path fill="none" stroke="#FFFFFF" stroke-width="1.8724" stroke-miterlimit="10" d="M92.5,55.4c-7,0.1-6.9,8.9-13.2,6.8
		c3,6.8,11.5,2.8,14.1-1.4C92.7,59.1,92.8,57.2,92.5,55.4z"/>
	<path fill-rule="evenodd" clip-rule="evenodd" fill="#FFCA05" d="M92.5,55.4c-7,0.1-6.9,8.9-13.2,6.8c3,6.8,11.5,2.8,14.1-1.4
		C92.7,59.1,92.8,57.2,92.5,55.4"/>
	<path fill="none" stroke="#FFFFFF" stroke-width="1.8724" stroke-miterlimit="10" d="M93.5,61.3c-5.8,2.5-2,10.3-8.9,10.3
		c5.2,4.5,11.2-1.5,12.8-6.1C95.8,64.3,94.4,63.2,93.5,61.3z"/>
	<path fill-rule="evenodd" clip-rule="evenodd" fill="#FFCA05" d="M93.5,61.3c-5.8,2.5-2,10.3-8.9,10.3c5.2,4.5,11.2-1.5,12.8-6.1
		C95.8,64.3,94.4,63.2,93.5,61.3"/>
	<path fill="none" stroke="#FFFFFF" stroke-width="1.8724" stroke-miterlimit="10" d="M97.5,65.5c-5.9,6.4,4.7,9.5-0.7,13.4
		c6.4,1.9,4.1-5.2,4.6-7.3c0.4-1.7,1-1.2,0.9-3.7L97.5,65.5z"/>
	<path fill-rule="evenodd" clip-rule="evenodd" fill="#FFCA05" d="M97.5,65.5c-5.9,6.4,4.7,9.5-0.7,13.4c6.4,1.9,4.1-5.2,4.6-7.3
		c0.4-1.7,1-1.2,0.9-3.7L97.5,65.5z"/>
	<path fill="none" stroke="#FFFFFF" stroke-width="1.8724" stroke-miterlimit="10" d="M102.3,67.6c2.1,0.4,4,0.3,6.1-0.1
		c0.6,4.2,4.8,10.7-0.8,13.2C109,75,100.9,74.7,102.3,67.6z"/>
	<path fill-rule="evenodd" clip-rule="evenodd" fill="#FFCA05" d="M102.3,67.6c2.1,0.4,4,0.3,6.1-0.1c0.6,4.2,4.8,10.7-0.8,13.2
		C109,75,100.9,74.7,102.3,67.6"/>
	<path fill="none" stroke="#FFFFFF" stroke-width="1.8724" stroke-miterlimit="10" d="M107.9,42.5c0.8-5.2,5-11.7,11.1-9
		c-5.9,5.4-1.3,7.9-5.4,11.7L107.9,42.5z"/>
	<path fill-rule="evenodd" clip-rule="evenodd" fill="#FFCA05" d="M107.9,42.5c0.8-5.2,5-11.7,11.1-9c-5.9,5.4-1.3,7.9-5.4,11.7
		L107.9,42.5z"/>
	<ellipse fill="none" stroke="#FFFFFF" stroke-width="1.9109" stroke-miterlimit="10" cx="105.2" cy="55.4" rx="13" ry="13"/>
	<path fill-rule="evenodd" clip-rule="evenodd" fill="#F6921E" d="M92.1,55.4c0-7.2,5.8-13,13-13c7.2,0,13,5.8,13,13
		c0,7.2-5.8,13-13,13C98,68.4,92.1,62.6,92.1,55.4"/>
</g>
</svg>
