<svg width="16" height="16" viewBox="0 0 16 16" fill="none" xmlns="http://www.w3.org/2000/svg">
<g clip-path="url(#clip0_919_579)">
<path d="M8.6582 13.9863H13.9863" stroke="#337E89" stroke-width="1.33203" stroke-linecap="round" stroke-linejoin="round"/>
<path d="M14.1022 4.53715C14.4543 4.18511 14.6522 3.70761 14.6522 3.20969C14.6523 2.71176 14.4545 2.23421 14.1025 1.88208C13.7505 1.52995 13.273 1.33209 12.775 1.33203C12.2771 1.33197 11.7996 1.52971 11.4474 1.88175L2.55879 10.7724C2.40415 10.9266 2.28979 11.1164 2.22578 11.3252L1.34597 14.2237C1.32876 14.2813 1.32746 14.3425 1.34221 14.4007C1.35696 14.459 1.38721 14.5122 1.42976 14.5547C1.4723 14.5972 1.52555 14.6273 1.58385 14.642C1.64215 14.6566 1.70333 14.6553 1.7609 14.6379L4.66007 13.7588C4.86864 13.6954 5.05846 13.5817 5.21286 13.4278L14.1022 4.53715Z" stroke="#337E89" stroke-width="1.33203" stroke-linecap="round" stroke-linejoin="round"/>
</g>
<defs>
<clipPath id="clip0_919_579">
<rect width="15.9844" height="15.9844" fill="white"/>
</clipPath>
</defs>
</svg>
