<svg width="64" height="64" viewBox="0 0 64 64" fill="none" xmlns="http://www.w3.org/2000/svg">
<path d="M29.3786 7.50396C29.4929 6.89223 29.8175 6.33973 30.2962 5.94214C30.7749 5.54455 31.3777 5.3269 32 5.3269C32.6223 5.3269 33.225 5.54455 33.7037 5.94214C34.1824 6.33973 34.507 6.89223 34.6213 7.50396L37.424 22.3253C37.623 23.379 38.1351 24.3483 38.8934 25.1065C39.6516 25.8648 40.6209 26.3769 41.6746 26.576L56.496 29.3786C57.1077 29.4929 57.6602 29.8175 58.0578 30.2962C58.4554 30.7749 58.673 31.3777 58.673 32C58.673 32.6223 58.4554 33.225 58.0578 33.7037C57.6602 34.1824 57.1077 34.507 56.496 34.6213L41.6746 37.424C40.6209 37.623 39.6516 38.1351 38.8934 38.8934C38.1351 39.6516 37.623 40.6209 37.424 41.6746L34.6213 56.496C34.507 57.1077 34.1824 57.6602 33.7037 58.0578C33.225 58.4554 32.6223 58.673 32 58.673C31.3777 58.673 30.7749 58.4554 30.2962 58.0578C29.8175 57.6602 29.4929 57.1077 29.3786 56.496L26.576 41.6746C26.3769 40.6209 25.8648 39.6516 25.1065 38.8934C24.3483 38.1351 23.379 37.623 22.3253 37.424L7.50396 34.6213C6.89223 34.507 6.33973 34.1824 5.94214 33.7037C5.54455 33.225 5.3269 32.6223 5.3269 32C5.3269 31.3777 5.54455 30.7749 5.94214 30.2962C6.33973 29.8175 6.89223 29.4929 7.50396 29.3786L22.3253 26.576C23.379 26.3769 24.3483 25.8648 25.1065 25.1065C25.8648 24.3483 26.3769 23.379 26.576 22.3253L29.3786 7.50396Z" stroke="#D1D5DC" stroke-width="5.33333" stroke-linecap="round" stroke-linejoin="round"/>
<path d="M53.3333 5.33325V15.9999" stroke="#D1D5DC" stroke-width="5.33333" stroke-linecap="round" stroke-linejoin="round"/>
<path d="M58.6667 10.6667H48" stroke="#D1D5DC" stroke-width="5.33333" stroke-linecap="round" stroke-linejoin="round"/>
<path d="M10.6666 58.6667C13.6121 58.6667 15.9999 56.2789 15.9999 53.3333C15.9999 50.3878 13.6121 48 10.6666 48C7.72107 48 5.33325 50.3878 5.33325 53.3333C5.33325 56.2789 7.72107 58.6667 10.6666 58.6667Z" stroke="#D1D5DC" stroke-width="5.33333" stroke-linecap="round" stroke-linejoin="round"/>
</svg>
