<svg width="16" height="16" viewBox="0 0 16 16" fill="none" xmlns="http://www.w3.org/2000/svg">
<g clip-path="url(#clip0_394_2039)">
<path d="M10.6272 13.9481V12.6197C10.6272 11.9151 10.3473 11.2393 9.84904 10.741C9.3508 10.2428 8.67503 9.96289 7.97041 9.96289H3.98522C3.2806 9.96289 2.60483 10.2428 2.10659 10.741C1.60834 11.2393 1.32843 11.9151 1.32843 12.6197V13.9481" stroke="#717182" stroke-width="1.3284" stroke-linecap="round" stroke-linejoin="round"/>
<path d="M10.6272 2.07764C11.1969 2.22533 11.7015 2.55803 12.0617 3.0235C12.4218 3.48896 12.6173 4.06086 12.6173 4.64941C12.6173 5.23796 12.4218 5.80986 12.0617 6.27533C11.7015 6.74079 11.1969 7.07349 10.6272 7.22118" stroke="#717182" stroke-width="1.3284" stroke-linecap="round" stroke-linejoin="round"/>
<path d="M14.6124 13.9477V12.6193C14.612 12.0306 14.4161 11.4588 14.0554 10.9935C13.6948 10.5283 13.1898 10.196 12.6198 10.0488" stroke="#717182" stroke-width="1.3284" stroke-linecap="round" stroke-linejoin="round"/>
<path d="M5.97787 7.30601C7.44517 7.30601 8.63466 6.11653 8.63466 4.64922C8.63466 3.18192 7.44517 1.99243 5.97787 1.99243C4.51056 1.99243 3.32108 3.18192 3.32108 4.64922C3.32108 6.11653 4.51056 7.30601 5.97787 7.30601Z" stroke="#717182" stroke-width="1.3284" stroke-linecap="round" stroke-linejoin="round"/>
</g>
<defs>
<clipPath id="clip0_394_2039">
<rect width="15.9407" height="15.9407" fill="white"/>
</clipPath>
</defs>
</svg>
