<svg width="16" height="16" viewBox="0 0 16 16" fill="none" xmlns="http://www.w3.org/2000/svg">
<path d="M10.1234 1.99805C10.4748 2.00305 10.8099 2.14668 11.0559 2.39766L13.5867 4.92852C13.8377 5.17445 13.9813 5.50959 13.9863 5.86094V12.6543C13.9863 13.0076 13.846 13.3464 13.5962 13.5962C13.3464 13.846 13.0076 13.9863 12.6543 13.9863H3.33008C2.9768 13.9863 2.63799 13.846 2.38819 13.5962C2.13839 13.3464 1.99805 13.0076 1.99805 12.6543V3.33008C1.99805 2.9768 2.13839 2.63799 2.38819 2.38819C2.63799 2.13839 2.9768 1.99805 3.33008 1.99805H10.1234Z" stroke="white" stroke-width="1.33203" stroke-linecap="round" stroke-linejoin="round"/>
<path d="M11.3223 13.9863V9.32422C11.3223 9.14758 11.2521 8.97818 11.1272 8.85327C11.0023 8.72837 10.8329 8.6582 10.6562 8.6582H5.32812C5.15149 8.6582 4.98208 8.72837 4.85718 8.85327C4.73228 8.97818 4.66211 9.14758 4.66211 9.32422V13.9863" stroke="white" stroke-width="1.33203" stroke-linecap="round" stroke-linejoin="round"/>
<path d="M4.66211 1.99805V4.66211C4.66211 4.83875 4.73228 5.00815 4.85718 5.13305C4.98208 5.25796 5.15149 5.32812 5.32812 5.32812H9.99023" stroke="white" stroke-width="1.33203" stroke-linecap="round" stroke-linejoin="round"/>
</svg>
