<svg width="16" height="16" viewBox="0 0 16 16" fill="none" xmlns="http://www.w3.org/2000/svg">
<g clip-path="url(#clip0_394_2026)">
<path d="M14.2272 7.25442C14.3461 7.20196 14.447 7.11578 14.5174 7.00654C14.5878 6.8973 14.6246 6.76981 14.6232 6.63986C14.6219 6.50991 14.5824 6.3832 14.5098 6.27545C14.4372 6.16769 14.3345 6.08361 14.2145 6.03362L8.52169 3.44059C8.34863 3.36165 8.16063 3.3208 7.97041 3.3208C7.78019 3.3208 7.59219 3.36165 7.41913 3.44059L1.72695 6.03096C1.6087 6.08275 1.50811 6.16788 1.43747 6.27593C1.36683 6.38398 1.32921 6.51028 1.32921 6.63937C1.32921 6.76846 1.36683 6.89476 1.43747 7.00281C1.50811 7.11086 1.6087 7.19599 1.72695 7.24778L7.41913 9.84346C7.59219 9.9224 7.78019 9.96325 7.97041 9.96325C8.16063 9.96325 8.34863 9.9224 8.52169 9.84346L14.2272 7.25442Z" stroke="#717182" stroke-width="1.3284" stroke-linecap="round" stroke-linejoin="round"/>
<path d="M14.6124 6.64185V10.627" stroke="#717182" stroke-width="1.3284" stroke-linecap="round" stroke-linejoin="round"/>
<path d="M3.98528 8.30249V10.6272C3.98528 11.1557 4.40514 11.6625 5.15251 12.0362C5.89988 12.4098 6.91352 12.6198 7.97046 12.6198C9.0274 12.6198 10.041 12.4098 10.7884 12.0362C11.5358 11.6625 11.9556 11.1557 11.9556 10.6272V8.30249" stroke="#717182" stroke-width="1.3284" stroke-linecap="round" stroke-linejoin="round"/>
</g>
<defs>
<clipPath id="clip0_394_2026">
<rect width="15.9407" height="15.9407" fill="white"/>
</clipPath>
</defs>
</svg>
