<svg width="16" height="16" viewBox="0 0 16 16" fill="none" xmlns="http://www.w3.org/2000/svg">
<g clip-path="url(#clip0_394_2090)">
<path d="M6.6212 9.93213H3.97271C3.27028 9.93213 2.59663 10.2112 2.09994 10.7079C1.60326 11.2045 1.32422 11.8782 1.32422 12.5806V13.9049" stroke="#0A0A0A" stroke-width="1.32424" stroke-linecap="round" stroke-linejoin="round"/>
<path d="M9.47168 10.9457L10.0838 10.6924" stroke="#0A0A0A" stroke-width="1.32424" stroke-linecap="round" stroke-linejoin="round"/>
<path d="M10.0838 9.1727L9.47168 8.9187" stroke="#0A0A0A" stroke-width="1.32424" stroke-linecap="round" stroke-linejoin="round"/>
<path d="M11.1584 8.09795L10.9044 7.48584" stroke="#0A0A0A" stroke-width="1.32424" stroke-linecap="round" stroke-linejoin="round"/>
<path d="M11.1584 11.7678L10.9044 12.3806" stroke="#0A0A0A" stroke-width="1.32424" stroke-linecap="round" stroke-linejoin="round"/>
<path d="M12.6783 8.09795L12.9323 7.48584" stroke="#0A0A0A" stroke-width="1.32424" stroke-linecap="round" stroke-linejoin="round"/>
<path d="M12.9317 12.3806L12.6783 11.7678" stroke="#0A0A0A" stroke-width="1.32424" stroke-linecap="round" stroke-linejoin="round"/>
<path d="M13.7536 9.1727L14.3664 8.9187" stroke="#0A0A0A" stroke-width="1.32424" stroke-linecap="round" stroke-linejoin="round"/>
<path d="M13.7536 10.6924L14.3664 10.9464" stroke="#0A0A0A" stroke-width="1.32424" stroke-linecap="round" stroke-linejoin="round"/>
<path d="M11.9182 11.9185C13.0152 11.9185 13.9046 11.0292 13.9046 9.93217C13.9046 8.83513 13.0152 7.9458 11.9182 7.9458C10.8212 7.9458 9.93182 8.83513 9.93182 9.93217C9.93182 11.0292 10.8212 11.9185 11.9182 11.9185Z" stroke="#0A0A0A" stroke-width="1.32424" stroke-linecap="round" stroke-linejoin="round"/>
<path d="M5.95916 7.28379C7.42188 7.28379 8.60765 6.09803 8.60765 4.63531C8.60765 3.17259 7.42188 1.98682 5.95916 1.98682C4.49644 1.98682 3.31067 3.17259 3.31067 4.63531C3.31067 6.09803 4.49644 7.28379 5.95916 7.28379Z" stroke="#0A0A0A" stroke-width="1.32424" stroke-linecap="round" stroke-linejoin="round"/>
</g>
<defs>
<clipPath id="clip0_394_2090">
<rect width="15.8909" height="15.8909" fill="white"/>
</clipPath>
</defs>
</svg>
