<svg width="16" height="16" viewBox="0 0 16 16" fill="none" xmlns="http://www.w3.org/2000/svg">
<g clip-path="url(#clip0_1070_2102)">
<path d="M14.4723 11.9883L9.14417 2.66404C9.028 2.45904 8.85952 2.28853 8.65593 2.1699C8.45235 2.05127 8.22093 1.98877 7.98531 1.98877C7.74968 1.98877 7.51827 2.05127 7.31468 2.1699C7.11109 2.28853 6.94262 2.45904 6.82644 2.66404L1.49831 11.9883C1.38088 12.1916 1.31931 12.4224 1.31983 12.6573C1.32035 12.8921 1.38295 13.1227 1.50128 13.3255C1.6196 13.5284 1.78946 13.6963 1.99363 13.8124C2.19779 13.9284 2.42901 13.9884 2.66384 13.9863H13.3201C13.5538 13.9861 13.7833 13.9243 13.9856 13.8073C14.1879 13.6903 14.3559 13.5222 14.4726 13.3197C14.5894 13.1172 14.6508 12.8876 14.6508 12.6539C14.6507 12.4202 14.5892 12.1907 14.4723 11.9883Z" stroke="#FF6900" stroke-width="1.33203" stroke-linecap="round" stroke-linejoin="round"/>
<path d="M7.99219 5.99414V8.6582" stroke="#FF6900" stroke-width="1.33203" stroke-linecap="round" stroke-linejoin="round"/>
<path d="M7.99219 11.3223H7.99885" stroke="#FF6900" stroke-width="1.33203" stroke-linecap="round" stroke-linejoin="round"/>
</g>
<defs>
<clipPath id="clip0_1070_2102">
<rect width="15.9844" height="15.9844" fill="white"/>
</clipPath>
</defs>
</svg>
