<svg width="16" height="16" viewBox="0 0 16 16" fill="none" xmlns="http://www.w3.org/2000/svg">
<path d="M1.36536 8.17541C1.31018 8.02676 1.31018 7.86323 1.36536 7.71458C1.90281 6.41142 2.81509 5.29719 3.98655 4.51315C5.15801 3.7291 6.5359 3.31055 7.94553 3.31055C9.35516 3.31055 10.733 3.7291 11.9045 4.51315C13.076 5.29719 13.9883 6.41142 14.5257 7.71458C14.5809 7.86323 14.5809 8.02676 14.5257 8.17541C13.9883 9.47857 13.076 10.5928 11.9045 11.3768C10.733 12.1609 9.35516 12.5794 7.94553 12.5794C6.5359 12.5794 5.15801 12.1609 3.98655 11.3768C2.81509 10.5928 1.90281 9.47857 1.36536 8.17541Z" stroke="#0A0A0A" stroke-width="1.32424" stroke-linecap="round" stroke-linejoin="round"/>
<path d="M7.94541 9.93147C9.04245 9.93147 9.93178 9.04215 9.93178 7.94511C9.93178 6.84807 9.04245 5.95874 7.94541 5.95874C6.84837 5.95874 5.95905 6.84807 5.95905 7.94511C5.95905 9.04215 6.84837 9.93147 7.94541 9.93147Z" stroke="#0A0A0A" stroke-width="1.32424" stroke-linecap="round" stroke-linejoin="round"/>
</svg>
