<svg width="16" height="16" viewBox="0 0 16 16" fill="none" xmlns="http://www.w3.org/2000/svg">
<g clip-path="url(#clip0_919_553)">
<path d="M14.4725 11.9883L9.14442 2.66404C9.02824 2.45904 8.85976 2.28853 8.65618 2.1699C8.45259 2.05127 8.22118 1.98877 7.98555 1.98877C7.74992 1.98877 7.51851 2.05127 7.31492 2.1699C7.11134 2.28853 6.94286 2.45904 6.82668 2.66404L1.49856 11.9883C1.38113 12.1916 1.31955 12.4224 1.32007 12.6573C1.32059 12.8921 1.38319 13.1227 1.50152 13.3255C1.61985 13.5284 1.78971 13.6963 1.99387 13.8124C2.19804 13.9284 2.42925 13.9884 2.66409 13.9863H13.3203C13.554 13.9861 13.7836 13.9243 13.9859 13.8073C14.1882 13.6903 14.3561 13.5222 14.4729 13.3197C14.5896 13.1172 14.6511 12.8876 14.651 12.6539C14.6509 12.4202 14.5894 12.1907 14.4725 11.9883Z" stroke="#0A0A0A" stroke-width="1.33203" stroke-linecap="round" stroke-linejoin="round"/>
<path d="M7.99219 5.99414V8.6582" stroke="#0A0A0A" stroke-width="1.33203" stroke-linecap="round" stroke-linejoin="round"/>
<path d="M7.99219 11.3223H7.99885" stroke="#0A0A0A" stroke-width="1.33203" stroke-linecap="round" stroke-linejoin="round"/>
</g>
<defs>
<clipPath id="clip0_919_553">
<rect width="15.9844" height="15.9844" fill="white"/>
</clipPath>
</defs>
</svg>
